<svg xmlns="http://www.w3.org/2000/svg" viewBox="0 0 99.34 248.19"><defs><style>.cls-1{fill:#231f20;}.cls-2{fill:#e9e5e0;}</style></defs><title>forward</title><g id="Layer_2" data-name="Layer 2"><g id="Layer_1-2" data-name="Layer 1"><line class="cls-1" x1="88.05" y1="123.22" x2="13.05" y2="11.21"/><path class="cls-2" d="M97.76,117.55,32.18,19.61,22.76,5.53c-3.38-5-9.92-7.24-15.39-4-5,2.93-7.43,10.32-4,15.39l65.58,97.94,9.42,14.07c3.38,5,9.92,7.24,15.39,4,5-2.93,7.43-10.32,4-15.39Z"/><line class="cls-1" x1="88.05" y1="123.22" x2="11.29" y2="236.95"/><path class="cls-2" d="M78.33,117.55,11,217.37,1.58,231.28c-3.4,5-1,12.47,4,15.39,5.54,3.24,12,1,15.39-4l67.37-99.82,9.39-13.91c3.4-5,1-12.47-4-15.39-5.54-3.24-12-1-15.39,4Z"/></g></g></svg>