<svg xmlns="http://www.w3.org/2000/svg" viewBox="0 0 191.28 122.5"><defs><style>.cls-1{fill:#231f20;}.cls-2{fill:#e9e5e0;}</style></defs><title>hamburger-icon_1</title><g id="Layer_2" data-name="Layer 2"><g id="Layer_1-2" data-name="Layer 1"><line class="cls-1" x1="10.87" y1="61.25" x2="180.41" y2="61.25"/><path class="cls-2" d="M10.87,72.5H180.41c14.48,0,14.5-22.5,0-22.5H10.87c-14.48,0-14.5,22.5,0,22.5Z"/><line class="cls-1" x1="10.87" y1="111.25" x2="180.41" y2="111.25"/><path class="cls-2" d="M10.87,122.5H180.41c14.48,0,14.5-22.5,0-22.5H10.87c-14.48,0-14.5,22.5,0,22.5Z"/><line class="cls-1" x1="10.87" y1="11.25" x2="180.41" y2="11.25"/><path class="cls-2" d="M10.87,22.5H180.41c14.48,0,14.5-22.5,0-22.5H10.87c-14.48,0-14.5,22.5,0,22.5Z"/></g></g></svg>