<svg xmlns="http://www.w3.org/2000/svg" viewBox="0 0 147.59 248.19"><defs><style>.cls-1{fill:#231f20;}.cls-2{fill:#e9e5e0;}</style></defs><title>skip-backward</title><g id="Layer_2" data-name="Layer 2"><g id="Layer_1-2" data-name="Layer 1"><line class="cls-1" x1="11.29" y1="124.96" x2="86.29" y2="236.97"/><path class="cls-2" d="M1.58,130.64l65.58,97.94,9.42,14.07c3.38,5,9.92,7.24,15.39,4,5-2.93,7.43-10.32,4-15.39L30.43,133.36,21,119.28c-3.38-5-9.92-7.24-15.39-4-5,2.93-7.43,10.32-4,15.39Z"/><line class="cls-1" x1="11.29" y1="124.96" x2="88.05" y2="11.23"/><path class="cls-2" d="M21,130.64,88.37,30.82l9.39-13.91c3.4-5,1-12.47-4-15.39-5.54-3.24-12-1-15.39,4L11,105.37,1.58,119.28c-3.4,5-1,12.47,4,15.39,5.54,3.24,12,1,15.39-4Z"/><line class="cls-1" x1="61.29" y1="124.96" x2="136.29" y2="235.41"/><path class="cls-2" d="M51.58,130.64l65.79,96.89,9.21,13.56c3.41,5,9.9,7.25,15.39,4,5-2.91,7.47-10.34,4-15.39L80.22,132.84,71,119.28c-3.41-5-9.9-7.25-15.39-4-5,2.91-7.47,10.34-4,15.39Z"/><line class="cls-1" x1="61.29" y1="124.96" x2="136.29" y2="12.93"/><path class="cls-2" d="M71,130.64l65.58-98L146,18.61c3.38-5.05,1-12.46-4-15.39-5.52-3.23-12-1-15.39,4L61,105.21l-9.42,14.07c-3.38,5.05-1,12.46,4,15.39,5.52,3.23,12,1,15.39-4Z"/></g></g></svg>